<?xml version="1.0" encoding="UTF-8" standalone="no"?>
<!-- Created with Inkscape (http://www.inkscape.org/) -->

<svg
   xmlns:dc="http://purl.org/dc/elements/1.1/"
   xmlns:cc="http://creativecommons.org/ns#"
   xmlns:rdf="http://www.w3.org/1999/02/22-rdf-syntax-ns#"
   xmlns:svg="http://www.w3.org/2000/svg"
   xmlns="http://www.w3.org/2000/svg"
   xmlns:sodipodi="http://sodipodi.sourceforge.net/DTD/sodipodi-0.dtd"
   xmlns:inkscape="http://www.inkscape.org/namespaces/inkscape"
   width="144.49777mm"
   height="40.745571mm"
   viewBox="0 0 511.99998 144.37407"
   id="svg2"
   version="1.1"
   inkscape:version="0.91 r"
   sodipodi:docname="logo.svg">
  <defs
     id="defs4" />
  <sodipodi:namedview
     id="base"
     pagecolor="#ffffff"
     bordercolor="#666666"
     borderopacity="1.0"
     inkscape:pageopacity="0.0"
     inkscape:pageshadow="2"
     inkscape:zoom="0.7"
     inkscape:cx="173.73185"
     inkscape:cy="-138.33629"
     inkscape:document-units="px"
     inkscape:current-layer="layer1"
     showgrid="false"
     fit-margin-top="0"
     fit-margin-left="0"
     fit-margin-right="0"
     fit-margin-bottom="0"
     inkscape:window-width="1366"
     inkscape:window-height="722"
     inkscape:window-x="0"
     inkscape:window-y="24"
     inkscape:window-maximized="1" />
  <metadata
     id="metadata7">
    <rdf:RDF>
      <cc:Work
         rdf:about="">
        <dc:format>image/svg+xml</dc:format>
        <dc:type
           rdf:resource="http://purl.org/dc/dcmitype/StillImage" />
        <dc:title></dc:title>
      </cc:Work>
    </rdf:RDF>
  </metadata>
  <g
     inkscape:label="Camada 1"
     inkscape:groupmode="layer"
     id="layer1"
     transform="translate(-102.69878,-101.35561)">
    <g
       style="font-style:normal;font-variant:normal;font-weight:normal;font-stretch:normal;font-size:107.99863434px;line-height:125%;font-family:'Open Sans';-inkscape-font-specification:'Open Sans';letter-spacing:0px;word-spacing:0px;fill:#416b67;fill-opacity:1;stroke:none;stroke-width:1px;stroke-linecap:butt;stroke-linejoin:miter;stroke-opacity:1"
       id="text4870">
      <path
         d="m 293.32691,211.88223 7.01991,-19.11576 26.89166,0 7.01991,19.11576 15.7678,0 -30.13162,-76.67903 -12.09585,0 -30.23961,76.67903 15.7678,0 z m 31.2116,-29.59162 -21.70772,0 11.01586,-30.99561 10.69186,30.99561 z"
         style="font-style:normal;font-variant:normal;font-weight:bold;font-stretch:normal;font-family:Raleway;-inkscape-font-specification:'Raleway Bold';fill:#416b67;fill-opacity:1"
         id="path4183"
         inkscape:connector-curvature="0" />
      <path
         d="m 412.31778,211.88223 0,-13.06783 -39.09551,0 0,-63.6112 -14.90381,0 0,76.67903 53.99932,0 z"
         style="font-style:normal;font-variant:normal;font-weight:bold;font-stretch:normal;font-family:Raleway;-inkscape-font-specification:'Raleway Bold';fill:#416b67;fill-opacity:1"
         id="path4185"
         inkscape:connector-curvature="0" />
      <path
         d="m 404.32588,135.2032 30.13162,76.67903 12.52784,0 29.91562,-76.67903 -15.6598,0 -20.51974,57.99527 -20.73574,-57.99527 -15.6598,0 z"
         style="font-style:normal;font-variant:normal;font-weight:bold;font-stretch:normal;font-family:Raleway;-inkscape-font-specification:'Raleway Bold';fill:#416b67;fill-opacity:1"
         id="path4187"
         inkscape:connector-curvature="0" />
      <path
         d="m 487.17601,211.88223 7.01991,-19.11576 26.89166,0 7.01992,19.11576 15.7678,0 -30.13162,-76.67903 -12.09585,0 -30.23962,76.67903 15.7678,0 z m 31.21161,-29.59162 -21.70773,0 11.01586,-30.99561 10.69187,30.99561 z"
         style="font-style:normal;font-variant:normal;font-weight:bold;font-stretch:normal;font-family:Raleway;-inkscape-font-specification:'Raleway Bold';fill:#416b67;fill-opacity:1"
         id="path4189"
         inkscape:connector-curvature="0" />
      <path
         d="m 567.07137,211.88223 0,-25.70367 14.68781,0 16.0918,25.70367 16.84779,0 L 596.663,183.0466 c 8.42389,-3.56396 13.82382,-12.52784 13.82382,-22.35572 0,-12.52784 -10.25987,-25.48768 -24.40769,-25.48768 l -33.91157,0 0,76.67903 14.90381,0 z m 0,-63.61119 18.03577,0 c 5.29193,0 10.36787,5.29193 10.36787,12.41984 0,6.91191 -4.21195,12.41984 -9.71988,12.41984 l -18.68376,0 0,-24.83968 z"
         style="font-style:normal;font-variant:normal;font-weight:bold;font-stretch:normal;font-family:Raleway;-inkscape-font-specification:'Raleway Bold';fill:#416b67;fill-opacity:1"
         id="path4191"
         inkscape:connector-curvature="0" />
    </g>
    <g
       transform="matrix(0.45729356,0,0,0.45729356,80.49204,73.116349)"
       id="g4874">
      <path
         style="fill:#009688;fill-opacity:1;stroke:none"
         d="m 48.561237,124.89588 63.142853,0 0,63.14285 -63.142853,0 z"
         id="rect4876"
         inkscape:connector-curvature="0" />
      <path
         style="fill:#00695c;fill-opacity:1;stroke:none"
         d="m 111.70409,124.89588 63.14285,0 0,63.14285 -63.14285,0 z"
         id="rect4878"
         inkscape:connector-curvature="0" />
      <path
         style="fill:#4db6ac;fill-opacity:1;stroke:none"
         d="m 48.561237,188.03874 63.142853,0 0,63.14285 -63.142853,0 z"
         id="rect4880"
         inkscape:connector-curvature="0" />
      <path
         style="fill:#92bfbb;fill-opacity:1;stroke:none"
         d="m 174.84694,61.753036 63.14285,0 0,63.142854 -63.14285,0 z"
         id="rect4882"
         inkscape:connector-curvature="0" />
      <path
         style="fill:#4e948e;fill-opacity:1;stroke:none"
         d="m 237.98979,61.753036 63.14285,0 0,63.142854 -63.14285,0 z"
         id="rect4884"
         inkscape:connector-curvature="0" />
      <path
         style="fill:#416b67;fill-opacity:1;stroke:none"
         d="m 237.98979,124.89588 63.14285,0 0,63.14285 -63.14285,0 z"
         id="rect4886"
         inkscape:connector-curvature="0" />
      <path
         style="fill:#4db6ac;fill-opacity:1;stroke:none"
         d="m 301.13263,188.03874 63.14285,0 0,63.14285 -63.14285,0 z"
         id="rect4888"
         inkscape:connector-curvature="0" />
      <path
         style="fill:#009688;fill-opacity:1;stroke:none"
         d="m 301.13263,251.18159 63.14285,0 0,63.14286 -63.14285,0 z"
         id="rect4890"
         inkscape:connector-curvature="0" />
      <path
         style="fill:#00695c;fill-opacity:1;stroke:none"
         d="m 237.98979,251.18159 63.14285,0 0,63.14286 -63.14285,0 z"
         id="rect4892"
         inkscape:connector-curvature="0" />
      <path
         style="fill:#92bfbb;fill-opacity:1;stroke:none"
         d="m 174.84694,314.3244 63.14285,0 0,63.14285 -63.14285,0 z"
         id="rect4894"
         inkscape:connector-curvature="0" />
      <path
         style="fill:#4e948e;fill-opacity:1;stroke:none"
         d="m 111.70409,314.3244 63.14285,0 0,63.14285 -63.14285,0 z"
         id="rect4896"
         inkscape:connector-curvature="0" />
      <path
         style="fill:#416b67;fill-opacity:1;stroke:none"
         d="m 111.70409,251.18159 63.14285,0 0,63.14286 -63.14285,0 z"
         id="rect4898"
         inkscape:connector-curvature="0" />
    </g>
  </g>
</svg>
